<svg xmlns="http://www.w3.org/2000/svg" xmlns:xlink="http://www.w3.org/1999/xlink" viewBox="0 0 1171.59 1702.14">
    <defs>
        <style>
            .cls-1{fill:none;}.cls-2{fill:#fffae3;}.cls-3{clip-path:url(#clip-path);}.cls-4{fill:#bfd1e5;}.cls-20,.cls-5{fill:#ffd3db;}.cls-14,.cls-15,.cls-6,.cls-7{fill:#fff;}.cls-7{font-size:18px;font-family:Lato-Bold,
            Lato
            Bold;font-weight:700;}.cls-8{letter-spacing:1.02em;}.cls-9{letter-spacing:0.95em;}.cls-10{letter-spacing:1em;}.cls-11{letter-spacing:0.96em;}.cls-12{letter-spacing:1em;}.cls-13{letter-spacing:0.98em;}.cls-14{font-size:36px;font-family:SourceSerifPro-Regular,
            SourceSerifPro Regular;}.cls-15{font-size:30px;}.cls-15,.cls-20{font-family:Lato-Black, Lato
            Black;font-weight:800;}.cls-16{letter-spacing:0.5em;}.cls-17{letter-spacing:0.51em;}.cls-18{letter-spacing:0.5em;}.cls-19{letter-spacing:0.51em;}.cls-20{font-size:24px;letter-spacing:0.16em;}.cls-21{letter-spacing:0.2em;}
        </style>
        <clipPath id="clip-path" transform="translate(45.8 41.07)">
            <rect class="cls-1" x="0.1" y="0.07" width="1079.8" height="1619.87"/>
        </clipPath>
    </defs>
    <g id="Layer_2" data-name="Layer 2">
        <g id="Background">
            <g id="_1" data-name="1">
                <g id="Vertical_1" data-name="Vertical 1">
                    <rect id="Background-2" data-name="Background" class="cls-2" x="45.8" y="41.07" width="1080"
                          height="1620"/>
                    <g class="cls-3">
                        <g id="Pattern">
                            <polygon class="cls-4" points="0 73.76 36.92 110.66 110.54 36.97 73.61 0.13 0 73.76"/>
                            <polygon class="cls-5"
                                     points="132.61 73.75 169.52 110.64 243.15 36.96 206.21 0.12 132.61 73.75"/>
                            <polygon class="cls-4"
                                     points="265.21 73.73 302.13 110.63 375.76 36.94 338.82 0.1 265.21 73.73"/>
                            <polygon class="cls-5"
                                     points="397.82 73.71 434.74 110.61 508.36 36.92 471.42 0.08 397.82 73.71"/>
                            <polygon class="cls-4"
                                     points="530.42 73.7 567.34 110.59 640.97 36.91 604.03 0.07 530.42 73.7"/>
                            <polygon class="cls-5"
                                     points="663.03 73.68 699.95 110.58 773.58 36.89 736.64 0.05 663.03 73.68"/>
                            <polygon class="cls-4"
                                     points="795.64 73.66 832.55 110.56 906.18 36.88 869.24 0.03 795.64 73.66"/>
                            <polygon class="cls-5"
                                     points="928.24 73.65 965.16 110.54 1038.79 36.86 1001.85 0.02 928.24 73.65"/>
                            <polygon class="cls-4"
                                     points="1060.85 73.63 1097.77 110.53 1171.39 36.84 1134.46 0 1060.85 73.63"/>
                            <polygon class="cls-5"
                                     points="0.02 206.39 36.93 243.28 110.56 169.6 73.62 132.75 0.02 206.39"/>
                            <polygon class="cls-4"
                                     points="132.62 206.37 169.54 243.26 243.17 169.58 206.23 132.74 132.62 206.37"/>
                            <polygon class="cls-5"
                                     points="265.23 206.35 302.15 243.25 375.77 169.56 338.83 132.72 265.23 206.35"/>
                            <polygon class="cls-4"
                                     points="397.83 206.34 434.75 243.23 508.38 169.55 471.44 132.71 397.83 206.34"/>
                            <polygon class="cls-5"
                                     points="530.44 206.32 567.36 243.22 640.99 169.53 604.05 132.69 530.44 206.32"/>
                            <polygon class="cls-4"
                                     points="663.05 206.3 699.97 243.2 773.59 169.51 736.65 132.67 663.05 206.3"/>
                            <polygon class="cls-5"
                                     points="795.65 206.29 832.57 243.18 906.2 169.5 869.26 132.66 795.65 206.29"/>
                            <polygon class="cls-4"
                                     points="928.26 206.27 965.18 243.17 1038.81 169.48 1001.87 132.64 928.26 206.27"/>
                            <polygon class="cls-5"
                                     points="1060.87 206.25 1097.78 243.15 1171.41 169.47 1134.47 132.62 1060.87 206.25"/>
                            <polygon class="cls-4"
                                     points="0.03 339.01 36.95 375.9 110.58 302.22 73.64 265.38 0.03 339.01"/>
                            <polygon class="cls-5"
                                     points="132.64 338.99 169.56 375.89 243.18 302.2 206.24 265.36 132.64 338.99"/>
                            <polygon class="cls-4"
                                     points="265.25 338.98 302.16 375.87 375.79 302.19 338.85 265.35 265.25 338.98"/>
                            <polygon class="cls-5"
                                     points="397.85 338.96 434.77 375.86 508.4 302.17 471.46 265.33 397.85 338.96"/>
                            <polygon class="cls-4"
                                     points="530.46 338.94 567.38 375.84 641 302.15 604.06 265.31 530.46 338.94"/>
                            <polygon class="cls-5"
                                     points="663.07 338.93 699.98 375.82 773.61 302.14 736.67 265.3 663.07 338.93"/>
                            <polygon class="cls-4"
                                     points="795.67 338.91 832.59 375.81 906.22 302.12 869.28 265.28 795.67 338.91"/>
                            <polygon class="cls-5"
                                     points="928.28 338.89 965.19 375.79 1038.82 302.11 1001.88 265.26 928.28 338.89"/>
                            <polygon class="cls-4"
                                     points="1060.88 338.88 1097.8 375.77 1171.43 302.09 1134.49 265.25 1060.88 338.88"/>
                            <polygon class="cls-5"
                                     points="0.05 471.63 36.97 508.53 110.59 434.84 73.65 398 0.05 471.63"/>
                            <polygon class="cls-4"
                                     points="132.66 471.62 169.57 508.51 243.2 434.83 206.26 397.98 132.66 471.62"/>
                            <polygon class="cls-5"
                                     points="265.26 471.6 302.18 508.49 375.81 434.81 338.87 397.97 265.26 471.6"/>
                            <polygon class="cls-4"
                                     points="397.87 471.58 434.79 508.48 508.41 434.79 471.47 397.95 397.87 471.58"/>
                            <polygon class="cls-5"
                                     points="530.48 471.57 567.39 508.46 641.02 434.78 604.08 397.94 530.48 471.57"/>
                            <polygon class="cls-4"
                                     points="663.08 471.55 700 508.44 773.63 434.76 736.69 397.92 663.08 471.55"/>
                            <polygon class="cls-5"
                                     points="795.69 471.53 832.6 508.43 906.23 434.74 869.29 397.9 795.69 471.53"/>
                            <polygon class="cls-4"
                                     points="928.29 471.52 965.21 508.41 1038.84 434.73 1001.9 397.89 928.29 471.52"/>
                            <polygon class="cls-5"
                                     points="1060.9 471.5 1097.82 508.4 1171.44 434.71 1134.51 397.87 1060.9 471.5"/>
                            <polygon class="cls-4"
                                     points="0.07 604.25 36.98 641.15 110.61 567.47 73.67 530.62 0.07 604.25"/>
                            <polygon class="cls-5"
                                     points="132.67 604.24 169.59 641.13 243.22 567.45 206.28 530.61 132.67 604.24"/>
                            <polygon class="cls-4"
                                     points="265.28 604.22 302.19 641.12 375.82 567.43 338.88 530.59 265.28 604.22"/>
                            <polygon class="cls-5"
                                     points="397.88 604.21 434.8 641.1 508.43 567.42 471.49 530.57 397.88 604.21"/>
                            <polygon class="cls-4"
                                     points="530.49 604.19 567.41 641.09 641.03 567.4 604.1 530.56 530.49 604.19"/>
                            <polygon class="cls-5"
                                     points="663.1 604.17 700.01 641.07 773.64 567.38 736.7 530.54 663.1 604.17"/>
                            <polygon class="cls-4"
                                     points="795.7 604.16 832.62 641.05 906.25 567.37 869.31 530.52 795.7 604.16"/>
                            <polygon class="cls-5"
                                     points="928.31 604.14 965.23 641.04 1038.85 567.35 1001.91 530.51 928.31 604.14"/>
                            <polygon class="cls-4"
                                     points="1060.92 604.12 1097.83 641.02 1171.46 567.34 1134.52 530.49 1060.92 604.12"/>
                            <polygon class="cls-5"
                                     points="0.08 736.88 37 773.77 110.63 700.09 73.69 663.25 0.08 736.88"/>
                            <polygon class="cls-4"
                                     points="132.69 736.86 169.6 773.76 243.23 700.07 206.29 663.23 132.69 736.86"/>
                            <polygon class="cls-5"
                                     points="265.3 736.85 302.21 773.74 375.84 700.06 338.9 663.21 265.3 736.85"/>
                            <polygon class="cls-4"
                                     points="397.9 736.83 434.82 773.72 508.44 700.04 471.51 663.2 397.9 736.83"/>
                            <polygon class="cls-5"
                                     points="530.51 736.81 567.42 773.71 641.05 700.02 604.11 663.18 530.51 736.81"/>
                            <polygon class="cls-4"
                                     points="663.11 736.8 700.03 773.69 773.66 700.01 736.72 663.16 663.11 736.8"/>
                            <polygon class="cls-5"
                                     points="795.72 736.78 832.64 773.67 906.26 699.99 869.33 663.15 795.72 736.78"/>
                            <polygon class="cls-4"
                                     points="928.33 736.76 965.24 773.66 1038.87 699.97 1001.93 663.13 928.33 736.76"/>
                            <polygon class="cls-5"
                                     points="1060.93 736.75 1097.85 773.64 1171.48 699.96 1134.54 663.12 1060.93 736.75"/>
                            <polygon class="cls-4" points="0.1 869.5 37.02 906.4 110.64 832.71 73.7 795.87 0.1 869.5"/>
                            <polygon class="cls-5"
                                     points="132.71 869.49 169.62 906.38 243.25 832.7 206.31 795.85 132.71 869.49"/>
                            <polygon class="cls-4"
                                     points="265.31 869.47 302.23 906.36 375.86 832.68 338.92 795.84 265.31 869.47"/>
                            <polygon class="cls-5"
                                     points="397.92 869.45 434.83 906.35 508.46 832.66 471.52 795.82 397.92 869.45"/>
                            <polygon class="cls-4"
                                     points="530.52 869.44 567.44 906.33 641.07 832.65 604.13 795.8 530.52 869.44"/>
                            <polygon class="cls-5"
                                     points="663.13 869.42 700.05 906.32 773.67 832.63 736.74 795.79 663.13 869.42"/>
                            <polygon class="cls-4"
                                     points="795.74 869.4 832.65 906.3 906.28 832.61 869.34 795.77 795.74 869.4"/>
                            <polygon class="cls-5"
                                     points="928.34 869.39 965.26 906.28 1038.89 832.6 1001.95 795.75 928.34 869.39"/>
                            <polygon class="cls-4"
                                     points="1060.95 869.37 1097.87 906.27 1171.49 832.58 1134.55 795.74 1060.95 869.37"/>
                            <polygon class="cls-5"
                                     points="0.12 1002.13 37.03 1039.02 110.66 965.34 73.72 928.49 0.12 1002.13"/>
                            <polygon class="cls-4"
                                     points="132.72 1002.11 169.64 1039 243.26 965.32 206.33 928.48 132.72 1002.11"/>
                            <polygon class="cls-5"
                                     points="265.33 1002.09 302.25 1038.99 375.87 965.3 338.93 928.46 265.33 1002.09"/>
                            <polygon class="cls-4"
                                     points="397.93 1002.08 434.85 1038.97 508.48 965.29 471.54 928.44 397.93 1002.08"/>
                            <polygon class="cls-5"
                                     points="530.54 1002.06 567.46 1038.95 641.08 965.27 604.14 928.43 530.54 1002.06"/>
                            <polygon class="cls-4"
                                     points="663.15 1002.04 700.06 1038.94 773.69 965.25 736.75 928.41 663.15 1002.04"/>
                            <polygon class="cls-5"
                                     points="795.75 1002.03 832.67 1038.92 906.3 965.24 869.36 928.39 795.75 1002.03"/>
                            <polygon class="cls-4"
                                     points="928.36 1002.01 965.28 1038.9 1038.9 965.22 1001.96 928.38 928.36 1002.01"/>
                            <polygon class="cls-5"
                                     points="1060.96 1001.99 1097.88 1038.89 1171.51 965.2 1134.57 928.36 1060.96 1001.99"/>
                            <polygon class="cls-4"
                                     points="0.13 1134.75 37.05 1171.64 110.67 1097.96 73.74 1061.12 0.13 1134.75"/>
                            <polygon class="cls-5"
                                     points="132.74 1134.73 169.66 1171.63 243.28 1097.94 206.34 1061.1 132.74 1134.73"/>
                            <polygon class="cls-4"
                                     points="265.34 1134.71 302.26 1171.61 375.89 1097.93 338.95 1061.08 265.34 1134.71"/>
                            <polygon class="cls-5"
                                     points="397.95 1134.7 434.87 1171.59 508.49 1097.91 471.56 1061.07 397.95 1134.7"/>
                            <polygon class="cls-4"
                                     points="530.56 1134.68 567.47 1171.58 641.1 1097.89 604.16 1061.05 530.56 1134.68"/>
                            <polygon class="cls-5"
                                     points="663.16 1134.67 700.08 1171.56 773.71 1097.88 736.77 1061.03 663.16 1134.67"/>
                            <polygon class="cls-4"
                                     points="795.77 1134.65 832.69 1171.55 906.31 1097.86 869.37 1061.02 795.77 1134.65"/>
                            <polygon class="cls-5"
                                     points="928.38 1134.63 965.29 1171.53 1038.92 1097.84 1001.98 1061 928.38 1134.63"/>
                            <polygon class="cls-4"
                                     points="1060.98 1134.62 1097.9 1171.51 1171.53 1097.83 1134.59 1060.98 1060.98 1134.62"/>
                            <polygon class="cls-5"
                                     points="0.15 1267.37 37.06 1304.27 110.69 1230.58 73.75 1193.74 0.15 1267.37"/>
                            <polygon class="cls-4"
                                     points="132.75 1267.36 169.67 1304.25 243.3 1230.57 206.36 1193.72 132.75 1267.36"/>
                            <polygon class="cls-5"
                                     points="265.36 1267.34 302.28 1304.23 375.9 1230.55 338.96 1193.71 265.36 1267.34"/>
                            <polygon class="cls-4"
                                     points="397.97 1267.32 434.88 1304.22 508.51 1230.53 471.57 1193.69 397.97 1267.32"/>
                            <polygon class="cls-5"
                                     points="530.57 1267.31 567.49 1304.2 641.12 1230.52 604.18 1193.67 530.57 1267.31"/>
                            <polygon class="cls-4"
                                     points="663.18 1267.29 700.1 1304.18 773.72 1230.5 736.78 1193.66 663.18 1267.29"/>
                            <polygon class="cls-5"
                                     points="795.79 1267.27 832.7 1304.17 906.33 1230.48 869.39 1193.64 795.79 1267.27"/>
                            <polygon class="cls-4"
                                     points="928.39 1267.26 965.31 1304.15 1038.94 1230.47 1002 1193.63 928.39 1267.26"/>
                            <polygon class="cls-5"
                                     points="1061 1267.24 1097.91 1304.13 1171.54 1230.45 1134.6 1193.61 1061 1267.24"/>
                            <polygon class="cls-4"
                                     points="0.16 1399.99 37.08 1436.89 110.71 1363.2 73.77 1326.36 0.16 1399.99"/>
                            <polygon class="cls-5"
                                     points="132.77 1399.98 169.69 1436.87 243.31 1363.19 206.38 1326.35 132.77 1399.98"/>
                            <polygon class="cls-4"
                                     points="265.38 1399.96 302.29 1436.86 375.92 1363.17 338.98 1326.33 265.38 1399.96"/>
                            <polygon class="cls-5"
                                     points="397.98 1399.94 434.9 1436.84 508.53 1363.15 471.59 1326.31 397.98 1399.94"/>
                            <polygon class="cls-4"
                                     points="530.59 1399.93 567.51 1436.82 641.13 1363.14 604.19 1326.3 530.59 1399.93"/>
                            <polygon class="cls-5"
                                     points="663.2 1399.91 700.11 1436.81 773.74 1363.12 736.8 1326.28 663.2 1399.91"/>
                            <polygon class="cls-4"
                                     points="795.8 1399.9 832.72 1436.79 906.35 1363.11 869.41 1326.26 795.8 1399.9"/>
                            <polygon class="cls-5"
                                     points="928.41 1399.88 965.33 1436.78 1038.95 1363.09 1002.01 1326.25 928.41 1399.88"/>
                            <polygon class="cls-4"
                                     points="1061.02 1399.86 1097.93 1436.76 1171.56 1363.07 1134.62 1326.23 1061.02 1399.86"/>
                            <polygon class="cls-5"
                                     points="0.18 1532.62 37.1 1569.51 110.72 1495.83 73.78 1458.99 0.18 1532.62"/>
                            <polygon class="cls-4"
                                     points="132.79 1532.6 169.7 1569.5 243.33 1495.81 206.39 1458.97 132.79 1532.6"/>
                            <polygon class="cls-5"
                                     points="265.39 1532.59 302.31 1569.48 375.94 1495.8 339 1458.95 265.39 1532.59"/>
                            <polygon class="cls-4"
                                     points="398 1532.57 434.92 1569.46 508.54 1495.78 471.6 1458.94 398 1532.57"/>
                            <polygon class="cls-5"
                                     points="530.61 1532.55 567.52 1569.45 641.15 1495.76 604.21 1458.92 530.61 1532.55"/>
                            <polygon class="cls-4"
                                     points="663.21 1532.54 700.13 1569.43 773.76 1495.75 736.82 1458.9 663.21 1532.54"/>
                            <polygon class="cls-5"
                                     points="795.82 1532.52 832.74 1569.41 906.36 1495.73 869.42 1458.89 795.82 1532.52"/>
                            <polygon class="cls-4"
                                     points="928.42 1532.5 965.34 1569.4 1038.97 1495.71 1002.03 1458.87 928.42 1532.5"/>
                            <polygon class="cls-5"
                                     points="1061.03 1532.49 1097.95 1569.38 1171.58 1495.7 1134.64 1458.86 1061.03 1532.49"/>
                            <polygon class="cls-4"
                                     points="0.2 1665.24 37.11 1702.14 110.74 1628.45 73.8 1591.61 0.2 1665.24"/>
                            <polygon class="cls-5"
                                     points="132.8 1665.22 169.72 1702.12 243.35 1628.43 206.41 1591.59 132.8 1665.22"/>
                            <polygon class="cls-4"
                                     points="265.41 1665.21 302.33 1702.1 375.95 1628.42 339.01 1591.58 265.41 1665.21"/>
                            <polygon class="cls-5"
                                     points="398.02 1665.19 434.93 1702.09 508.56 1628.4 471.62 1591.56 398.02 1665.19"/>
                            <polygon class="cls-4"
                                     points="530.62 1665.17 567.54 1702.07 641.17 1628.38 604.23 1591.54 530.62 1665.17"/>
                            <polygon class="cls-5"
                                     points="663.23 1665.16 700.15 1702.05 773.77 1628.37 736.83 1591.53 663.23 1665.16"/>
                            <polygon class="cls-4"
                                     points="795.84 1665.14 832.75 1702.04 906.38 1628.35 869.44 1591.51 795.84 1665.14"/>
                            <polygon class="cls-5"
                                     points="928.44 1665.13 965.36 1702.02 1038.98 1628.34 1002.05 1591.49 928.44 1665.13"/>
                            <polygon class="cls-4"
                                     points="1061.05 1665.11 1097.96 1702.01 1171.59 1628.32 1134.65 1591.48 1061.05 1665.11"/>
                        </g>
                    </g>
                    <polygon id="Footer" class="cls-4"
                             points="1125.8 1661.07 45.8 1661.07 45.8 1489.07 1125.8 1301.64 1125.8 1661.07"/>
                </g>
            </g>
        </g>
        <g id="Graphics">
            <g id="_1-2" data-name="1">
                <g id="Vertical_1-2" data-name="Vertical 1">
                    <g id="White_Circle" data-name="White Circle">
                        <circle class="cls-6" cx="585.8" cy="751.07" r="425"/>
                    </g>
                    <path id="Footer-2" data-name="Footer" class="cls-5"
                          d="M239.56,969c72.74,84.3,180.36,137.67,300.44,137.67S767.7,1053.3,840.44,969Z"
                          transform="translate(45.8 41.07)"/>
                    <g id="Line_Frame" data-name="Line Frame">
                        <path class="cls-5"
                              d="M540.5,323a385.3,385.3,0,1,1-150.44,30.37A384.09,384.09,0,0,1,540.5,323m0-10C321.52,313,144,490.52,144,709.5S321.52,1106,540.5,1106,937,928.48,937,709.5,759.48,313,540.5,313Z"
                              transform="translate(45.8 41.07)"/>
                    </g>
                    <rect id="Box" class="cls-4" x="335.8" y="868.07" width="500" height="80"/>
                </g>
            </g>
        </g>
        <g id="Text">
            <g id="_1-3" data-name="1">
                <g id="Vertical_1-3" data-name="Vertical 1">
                    <text class="cls-7" transform="translate(369.1 1576.07)">
                        <tspan class="cls-8">WW</tspan>
                        <tspan class="cls-9" x="67.03" y="0">W</tspan>
                        <tspan class="cls-10" x="99.27" y="0">.</tspan>
                        <tspan class="cls-11" x="121" y="0">Y</tspan>
                        <tspan class="cls-10" x="148.08" y="0">OURSIT</tspan>
                        <tspan class="cls-12" x="311.94" y="0">E</tspan>
                        <tspan class="cls-10" x="338.72" y="0">.</tspan>
                        <tspan class="cls-13" x="360.45" y="0">C</tspan>
                        <tspan class="cls-10" x="388.51" y="0">O</tspan>
                        <tspan x="418.91" y="0">M</tspan>
                    </text>
                    <text class="cls-14" transform="translate(473.87 1084.86)">dolor sit amet!!</text>
                    <text class="cls-15" transform="translate(396.38 919.23)">
                        <tspan class="cls-16">E</tspan>
                        <tspan class="cls-17" x="29.76" y="0">X</tspan>
                        <tspan class="cls-18" x="62.13" y="0">T</tspan>
                        <tspan class="cls-19" x="92.04" y="0">R</tspan>
                        <tspan class="cls-18" x="123.33" y="0">A 50% OF</tspan>
                        <tspan x="364.23" y="0">F</tspan>
                    </text>
                    <text class="cls-20" transform="translate(438.08 812.05)">L
                        <tspan class="cls-21" x="15.19" y="0">OREM IPSUM DO</tspan>
                        <tspan x="246" y="0">L</tspan>
                        <tspan class="cls-21" x="261.19" y="0">OR</tspan>
                    </text>
                </g>
            </g>
        </g>
    </g>
</svg>